name analog
datacolumns 19
datarows 27
range 0.0 0.013000000000000001
endheader
time	ground_force_vx	ground_force_vy	ground_force_vz	ground_force_px	ground_force_py	ground_force_pz	l_ground_force_vx	l_ground_force_vy	l_ground_force_vz	l_ground_force_px	l_ground_force_py	l_ground_force_pz	ground_torque_x	ground_torque_y	ground_torque_z	l_ground_torque_x	l_ground_torque_y	l_ground_torque_z
0.0	-0.0	-0.0	-0.0	-0.7981141209602356	43.67628479003906	-589.1041259765625	-0.5281343460083008	-0.2670212090015411	-37.01007080078125	-0.0	-0.0	-0.0	-0.0	-0.0	-0.0	11190.2998046875	-5136.25048828125	89.92984771728516
0.0005	-0.0	-0.0	-0.0	-0.371604323387146	44.030418395996094	-585.533447265625	0.8785680532455444	-1.1545586585998535	-38.82305145263672	-0.0	-0.0	-0.0	-0.0	-0.0	-0.0	11910.11328125	-5351.57470703125	357.0140075683594
0.001	-0.0	-0.0	-0.0	-0.1044389605522155	44.03802490234375	-581.7074584960938	1.5901575088500977	-2.459792137145996	-46.76890182495117	-0.0	-0.0	-0.0	-0.0	-0.0	-0.0	13111.931640625	-5832.30810546875	919.3515625
0.0015	-0.0	-0.0	-0.0	-0.0892105102539062	43.8703498840332	-576.118896484375	2.5657875537872314	-3.435485363006592	-51.64757537841797	-0.0	-0.0	-0.0	-0.0	-0.0	-0.0	14413.615234375	-6193.23681640625	1129.707275390625
0.002	-0.0	-0.0	-0.0	0.2595945596694946	44.46269226074219	-574.2388305664062	2.7570912837982178	-4.4207682609558105	-54.1092414855957	-0.0	-0.0	-0.0	-0.0	-0.0	-0.0	15793.4619140625	-6930.81298828125	1481.6802978515625
0.0025	-0.0	-0.0	-0.0	0.2813765406608581	44.2895736694336	-569.3042602539062	3.8097198009490967	-5.208568096160889	-61.78076934814453	-0.0	-0.0	-0.0	-0.0	-0.0	-0.0	17546.205078125	-7394.20849609375	1748.3253173828125
0.003	-0.0	-0.0	-0.0	0.1004595756530761	44.03603744506836	-567.2404174804688	4.164437294006348	-6.005874633789063	-67.30802154541016	-0.0	-0.0	-0.0	-0.0	-0.0	-0.0	19451.53125	-7835.30908203125	1810.9427490234373
0.0035	-0.0	-0.0	-0.0	-0.4113730192184448	44.562313079833984	-564.3930053710938	3.7437877655029297	-7.408818244934082	-72.27438354492188	-0.0	-0.0	-0.0	-0.0	-0.0	-0.0	21054.619140625	-8101.65576171875	1993.4119873046875
0.004	-0.0	-0.0	-0.0	0.4253354668617248	44.46720504760742	-559.53076171875	4.532144069671631	-8.631946563720703	-79.97643280029297	-0.0	-0.0	-0.0	-0.0	-0.0	-0.0	23106.1796875	-8629.427734375	2194.410400390625
0.0045000000000000005	-0.0	-0.0	-0.0	-0.0740965604782104	44.12257385253906	-556.9886474609375	4.5215559005737305	-9.19350242614746	-87.94378662109375	-0.0	-0.0	-0.0	-0.0	-0.0	-0.0	24785.169921875	-9206.1796875	2139.394287109375
0.005	-0.0	-0.0	-0.0	-0.5383635759353638	44.202484130859375	-551.7039184570312	5.128596782684326	-9.707107543945312	-94.64189910888672	-0.0	-0.0	-0.0	-0.0	-0.0	-0.0	27134.71875	-9632.5517578125	2282.532958984375
0.0055	-0.0	-0.0	-0.0	-0.9686607718467712	44.63220977783203	-546.078857421875	5.411357879638672	-10.179569244384766	-102.60594940185548	-0.0	-0.0	-0.0	-0.0	-0.0	-0.0	28955.111328125	-9858.5712890625	2284.446533203125
0.006	-0.0	-0.0	-0.0	-1.0737675428390503	44.281620025634766	-540.7570190429688	6.01195240020752	-11.299378395080566	-109.28445434570312	-0.0	-0.0	-0.0	-0.0	-0.0	-0.0	31134.2734375	-10516.103515625	2459.626708984375
0.006500000000000001	-0.0	-0.0	-0.0	-1.519890069961548	43.77295684814453	-536.506591796875	6.224660873413086	-12.179488182067873	-118.01324462890624	-0.0	-0.0	-0.0	-0.0	-0.0	-0.0	33554.61328125	-10959.6376953125	2584.098876953125
0.007	-0.0	-0.0	-0.0	-2.134303092956543	44.20867919921875	-528.737060546875	6.659396648406982	-12.721353530883787	-127.78948974609376	-0.0	-0.0	-0.0	-0.0	-0.0	-0.0	36097.640625	-10830.5380859375	2582.276611328125
0.0075	-0.0	-0.0	-0.0	-2.995182752609253	43.24894332885742	-522.013671875	6.212876319885254	-13.778182983398438	-138.588623046875	-0.0	-0.0	-0.0	-0.0	-0.0	-0.0	38685.953125	-10964.8369140625	2405.7939453125
0.008	-0.0	-0.0	-0.0	-2.783134937286377	42.52224349975586	-515.275634765625	4.35959005355835	-13.525923728942873	-146.6436767578125	-0.0	-0.0	-0.0	-0.0	-0.0	-0.0	41393.87109375	-11347.76171875	1892.829345703125
0.0085	-0.0	-0.0	-0.0	-3.718163728713989	42.14435958862305	-503.3665771484375	3.8113107681274414	-14.821849822998049	-158.7999725341797	-0.0	-0.0	-0.0	-0.0	-0.0	-0.0	44623.77734375	-11196.0458984375	1572.2276611328125
0.009000000000000001	-0.0	-0.0	-0.0	-4.114670753479004	41.125709533691406	-494.1857604980469	2.8620567321777344	-15.361342430114746	-169.31231689453125	-0.0	-0.0	-0.0	-0.0	-0.0	-0.0	48086.2578125	-11430.9970703125	1123.14013671875
0.0095	-0.0	-0.0	-0.0	-4.4605255126953125	41.319278717041016	-481.5317993164063	2.4974756240844727	-16.42107582092285	-181.5054168701172	-0.0	-0.0	-0.0	-0.0	-0.0	-0.0	51337.125	-11503.966796875	951.3934936523438
0.01	-0.0	-0.0	-0.0	-5.523444175720215	40.376075744628906	-472.1714782714844	2.23165225982666	-16.78803062438965	-193.76548767089844	-0.0	-0.0	-0.0	-0.0	-0.0	-0.0	54854.59375	-11399.10546875	537.0784912109375
0.0105	-0.0	-0.0	-0.0	-5.247955322265625	39.64371871948242	-458.7501525878906	1.6144952774047852	-18.017623901367188	-206.19532775878903	-0.0	-0.0	-0.0	-0.0	-0.0	-0.0	58237.2421875	-11146.0859375	353.7240600585937
0.011	-0.0	-0.0	-0.0	-5.511369228363037	38.16354370117188	-446.86614990234375	0.5538813471794128	-19.331687927246094	-217.7997131347656	-0.0	-0.0	-0.0	-0.0	-0.0	-0.0	61698.2578125	-11148.3779296875	-60.23020935058594
0.0115	-0.0	-0.0	-0.0	-5.543094158172607	37.779258728027344	-433.7685241699219	0.1663814485073089	-20.681930541992188	-231.12388610839844	-0.0	-0.0	-0.0	-0.0	-0.0	-0.0	65319.984375	-11101.1630859375	-383.384033203125
0.012	-0.0	-0.0	-0.0	-5.340377330780029	36.81902313232422	-421.0551452636719	-0.4510537683963775	-22.36405372619629	-242.9652404785156	-0.0	-0.0	-0.0	-0.0	-0.0	-0.0	68716.2421875	-10957.7802734375	-765.9808959960938
0.0125	-0.0	-0.0	-0.0	-5.773797512054443	35.57546615600586	-407.9228515625	-1.4269979000091553	-24.00072288513184	-254.22738647460935	-0.0	-0.0	-0.0	-0.0	-0.0	-0.0	72068.9375	-10834.3681640625	-806.7652587890625
0.013000000000000001	-0.0	-0.0	-0.0	-5.522601127624512	34.429664611816406	-395.6284484863281	-2.2099897861480717	-25.26000213623047	-267.0704040527344	-0.0	-0.0	-0.0	-0.0	-0.0	-0.0	75258.953125	-10704.986328125	-931.475341796875
